<?xml version="1.0" encoding="utf-8"?>
<!-- Generator: Adobe Illustrator 23.0.3, SVG Export Plug-In . SVG Version: 6.00 Build 0)  -->
<svg version="1.1" id="Слой_1" xmlns="http://www.w3.org/2000/svg" xmlns:xlink="http://www.w3.org/1999/xlink" x="0px" y="0px"
	 viewBox="0 0 490 128.8" style="enable-background:new 0 0 490 128.8;" xml:space="preserve">
<style type="text/css">
	.st0{fill:#CD1417;}
	.st1{fill:#FFFFFF;}
	.st2{fill:#050607;}
</style>
<g>
	<g>
		<circle class="st0" cx="64.4" cy="64.4" r="64.4"/>
		<g>
			<g>
				<path class="st1" d="M22.7,92.2l10.6-55.6h14l-8.2,43.3H60l-2.3,12.3H22.7z"/>
			</g>
			<g>
				<path class="st1" d="M62.1,88.9l4.6-11.5c4.1,2.3,8.7,3.5,13.7,3.5c2.1,0.1,3.8-0.3,5.3-1.2c1.4-0.8,2.1-2,2.1-3.5
					c0-1.3-0.6-2.4-1.6-3.3c-1.1-0.9-3-2.1-5.6-3.5c-3.5-1.9-6.3-4-8.5-6.3c-2.2-2.3-3.3-5.2-3.3-8.6c0-5.7,2.2-10.3,6.6-13.7
					c4.4-3.4,10-5.1,16.6-5.1c5.6,0,10.2,0.9,13.9,2.6l-4.3,11.8c-3.5-1.6-7-2.4-10.6-2.3c-2.4,0-4.3,0.4-5.5,1.2
					c-1.3,0.8-1.9,1.9-1.9,3.1c0,0.3,0,0.6,0.1,0.8c0.1,0.3,0.2,0.6,0.4,0.8c0.2,0.3,0.4,0.5,0.6,0.7c0.2,0.2,0.5,0.5,0.8,0.7
					c0.4,0.3,0.7,0.5,0.9,0.7c0.3,0.2,0.7,0.4,1.2,0.7c0.5,0.3,0.9,0.5,1.2,0.7c0.3,0.2,0.7,0.5,1.3,0.8c0.6,0.3,1,0.6,1.4,0.7
					c7.5,3.8,11.2,8.7,11.2,14.6c0,4.3-1.2,7.9-3.5,11c-2.3,3-5.2,5.2-8.7,6.5c-3.5,1.3-7.3,1.9-11.6,1.9
					C71.4,92.8,65.8,91.5,62.1,88.9z"/>
			</g>
		</g>
	</g>
	<g>
		<path class="st2" d="M139.1,92.2l10.6-55.6h3.7l-10.1,52.4h23.1l-0.7,3.2H139.1z"/>
		<path class="st2" d="M181.3,36.6h3.7l-10.6,55.6h-3.7L181.3,36.6z"/>
		<path class="st2" d="M227.8,64.7l-4.7,25.2c-4.1,1.9-8.9,2.8-14.2,2.8c-8.1,0-14.1-2.5-18-7.4c-3.2-4-4.8-9.2-4.8-15.7
			c0-4.5,0.9-9,2.7-13.6c1.8-4.6,4.4-8.5,7.8-11.7c6-5.6,13.3-8.3,21.9-8.3c5.4,0,9.5,0.9,12.1,2.6l-1.4,3.1
			c-3.1-1.6-7-2.5-11.6-2.5c-7.3,0-13.7,2.7-19.1,8.2c-2.6,2.7-4.7,6-6.2,10.1c-1.5,4-2.3,7.9-2.3,11.8c0,6.3,1.6,11.2,4.7,14.8
			c3.2,3.6,8.2,5.4,15.1,5.4c3.8,0,7.1-0.6,9.9-1.9l3.7-19.7h-12.9l0.6-3.2H227.8z"/>
		<path class="st2" d="M241.1,36.6h3.8l-4.8,24.5h28.9l4.7-24.5h3.7l-10.6,55.6h-3.7l5.3-27.9h-28.9l-5.3,27.9h-3.7L241.1,36.6z"/>
		<path class="st2" d="M288,92.2l10-52.4h-17.2l0.7-3.2h38.1l-0.7,3.2h-17.2l-10,52.4H288z"/>
		<path class="st2" d="M309.7,88.9l4.6-11.5c4.1,2.3,8.7,3.5,13.7,3.5c2.1,0.1,3.8-0.3,5.3-1.2c1.4-0.8,2.1-2,2.1-3.5
			c0-1.3-0.6-2.4-1.6-3.3c-1.1-0.9-3-2.1-5.6-3.5c-3.5-1.9-6.3-4-8.5-6.3c-2.2-2.3-3.3-5.2-3.3-8.6c0-5.7,2.2-10.3,6.6-13.7
			c4.4-3.4,10-5.1,16.6-5.1c5.6,0,10.2,0.9,13.9,2.6l-4.3,11.8c-3.5-1.6-7-2.4-10.6-2.3c-2.4,0-4.3,0.4-5.5,1.2
			c-1.3,0.8-1.9,1.9-1.9,3.1c0,0.3,0,0.6,0.1,0.8c0.1,0.3,0.2,0.6,0.4,0.8c0.2,0.3,0.4,0.5,0.6,0.7c0.2,0.2,0.5,0.5,0.8,0.7
			c0.4,0.3,0.7,0.5,0.9,0.7c0.3,0.2,0.7,0.4,1.2,0.7c0.5,0.3,0.9,0.5,1.2,0.7c0.3,0.2,0.7,0.5,1.3,0.8c0.6,0.3,1,0.6,1.4,0.7
			c7.5,3.8,11.2,8.7,11.2,14.6c0,4.3-1.2,7.9-3.5,11c-2.3,3-5.2,5.2-8.7,6.5s-7.3,1.9-11.6,1.9C319,92.8,313.3,91.5,309.7,88.9z"/>
		<path class="st2" d="M364.3,36.6h14l-10.6,55.6h-14L364.3,36.6z"/>
		<path class="st2" d="M430.7,59.4l-5.8,30.1c-6.8,2.1-13.1,3.2-19,3.2c-7.6,0-13.9-1.9-18.6-5.7c-5.1-4.1-7.6-9.9-7.6-17.6
			c0-10.6,3.8-19.1,11.5-25.5c6.6-5.3,15-8,25.2-8c6.9,0,12,0.8,15.4,2.4l-4.1,11.9c-3.6-1.5-7.5-2.2-11.8-2.2
			c-5.2,0-9.5,1.2-12.9,3.5c-5.3,3.9-7.9,9.6-7.9,17c0,4.2,1.2,7.3,3.5,9.3c2.3,2,5.4,3.1,9.3,3.1c2.1,0,3.8-0.2,5-0.7l1.8-9.6h-7.5
			l2.2-11.1H430.7z"/>
		<path class="st2" d="M446.6,92.2h-13l10.5-55.6h16.7l5,16.8c2.2,7.6,3.9,14.4,5.1,20.4h0.2c0.2-5.4,1.1-12.4,2.6-21l3.1-16.2H490
			l-10.5,55.6h-14.8L459.2,74c-2.7-9.1-4.5-16-5.5-20.8h-0.2c-0.7,5.3-2,13.2-3.9,23.6L446.6,92.2z"/>
	</g>
</g>
</svg>
