<?xml version="1.0" encoding="utf-8"?>
<!-- Generator: Adobe Illustrator 22.1.0, SVG Export Plug-In . SVG Version: 6.00 Build 0)  -->
<svg version="1.1" id="Слой_1" xmlns="http://www.w3.org/2000/svg" xmlns:xlink="http://www.w3.org/1999/xlink" x="0px" y="0px"
	 viewBox="0 0 980 320" style="enable-background:new 0 0 980 320;" xml:space="preserve">
<style type="text/css">
	.st0{fill:url(#SVGID_1_);}
	.st1{fill:#FFFFFF;}
	.st2{fill:url(#SVGID_2_);}
	.st3{fill:url(#SVGID_3_);}
</style>
<g>
	<g>
		<g>
			<path d="M380.3,75.5c-0.4-1.6-1.3-2.4-2.5-2.4c-1.3,0-2.2,0.8-2.6,2.4l-22.8,83.7c-0.4,1.3-1.1,2-2.4,2h-7.7
				c-1.5,0-2.2-0.7-2.2-2.1c0-0.4,0-0.7,0.1-0.9l24.3-85.4c1.8-6.6,6.3-10,13.4-10c7,0,11.4,3.3,13.3,9.8l24.3,85.5
				c0.1,0.2,0.1,0.5,0.1,0.9c0,1.4-0.7,2.1-2.2,2.1h-7.7c-1.1,0-1.9-0.7-2.2-2L380.3,75.5z"/>
			<path d="M497.9,161.2h-7.7c-1.1,0-1.9-0.7-2.2-2l-8.5-30.2h-34l-8.4,30.2c-0.4,1.3-1.1,2-2.4,2h-7.7c-1.5,0-2.2-0.7-2.2-2.1
				c0-0.4,0-0.7,0.1-0.9l24.3-85.4c1.8-6.6,6.3-10,13.4-10c7,0,11.4,3.3,13.3,9.8l24.3,85.5c0.1,0.2,0.1,0.5,0.1,0.9
				C500.1,160.5,499.4,161.2,497.9,161.2z M465,75.5c-0.4-1.6-1.3-2.4-2.5-2.4c-1.3,0-2.2,0.8-2.6,2.4l-11.9,43.2h29L465,75.5z"/>
			<path d="M659.2,73.9h-25.6v84.6c0,0.7-0.2,1.3-0.7,1.8c-0.4,0.5-1,0.8-1.7,0.8h-7.2c-0.6,0-1.2-0.3-1.6-0.8
				c-0.5-0.5-0.7-1.1-0.7-1.8V73.9h-25.6c-1.7,0-2.6-0.7-2.6-2.1V66c0-0.6,0.3-1.2,0.8-1.6c0.5-0.5,1.1-0.7,1.8-0.7h63.1
				c1.7,0,2.5,0.8,2.5,2.4v5.8C661.7,73.2,660.9,73.9,659.2,73.9z"/>
			<path d="M725.4,160.4c-5.9,1.1-13.2,1.7-21.8,1.7c-4.4,0-8.5-0.7-12.3-2c-3.8-1.3-7.5-3.4-11-6.3c-3.5-2.9-6.2-7.1-8.3-12.6
				c-2.1-5.5-3.1-12.1-3.1-19.7v-18.2c0-7.7,1-14.3,3.1-19.8c2.1-5.5,4.8-9.7,8.3-12.6c3.5-2.9,7.2-5,11-6.2
				c3.8-1.3,7.9-1.9,12.3-1.9c5.9,0,13.2,0.7,22,2.1c1.4,0.2,2.1,0.7,2.1,1.7v6.7c0,1-0.7,1.5-2,1.4c-9.4-0.8-16.8-1.2-22-1.2
				c-15.2,0-22.8,9.9-22.8,29.8v18.2c0,10.4,2.1,18,6.2,22.7c4.1,4.7,9.7,7.1,16.7,7.1c6,0,13.3-0.3,21.6-1c1.7-0.2,2.6,0.5,2.6,2.1
				v5.4C728,159.2,727.2,160,725.4,160.4z"/>
			<path d="M810.8,161.2H803c-1.1,0-1.9-0.7-2.2-2l-8.5-30.2h-34l-8.4,30.2c-0.3,1.3-1.1,2-2.4,2h-7.7c-1.5,0-2.2-0.7-2.2-2.1
				c0-0.4,0-0.7,0.1-0.9L762,72.7c1.8-6.6,6.3-10,13.4-10c7,0,11.4,3.3,13.3,9.8l24.3,85.5c0.1,0.2,0.1,0.5,0.1,0.9
				C813,160.5,812.3,161.2,810.8,161.2z M777.8,75.5c-0.4-1.6-1.3-2.4-2.5-2.4c-1.3,0-2.2,0.8-2.6,2.4l-11.9,43.2h29L777.8,75.5z"/>
			<path d="M979.2,160.4c-0.5,0.5-1.1,0.8-1.8,0.8h-6.7c-0.7,0-1.3-0.3-1.8-0.8s-0.8-1.1-0.8-1.8V115h-44.9v43.6
				c0,0.7-0.3,1.3-0.8,1.8s-1.1,0.8-1.8,0.8h-6.7c-0.7,0-1.3-0.3-1.8-0.8s-0.8-1.1-0.8-1.8V66.3c0-0.7,0.3-1.3,0.8-1.8
				c0.5-0.5,1.1-0.8,1.8-0.8h6.7c0.7,0,1.3,0.3,1.8,0.8c0.5,0.5,0.8,1.1,0.8,1.8v38.1h44.9V66.3c0-0.7,0.3-1.3,0.8-1.8
				c0.5-0.5,1.1-0.8,1.8-0.8h6.7c0.7,0,1.3,0.3,1.8,0.8c0.5,0.5,0.8,1.1,0.8,1.8v92.2C980,159.3,979.7,159.9,979.2,160.4z"/>
			<path d="M512.3,157.4V66.2c0-1.7,0.8-2.5,2.4-2.5h7c0.6,0,1.2,0.2,1.6,0.7c0.5,0.5,0.7,1.1,0.7,1.8v76.8c0,0.3,0,0.4,0.1,0.4
				l0.3-0.4l40.3-76.6c0.5-1,1.1-1.7,1.8-2.1c0.7-0.4,1.9-0.5,3.6-0.5h7.2c1,0,1.9,0.3,2.7,1c0.7,0.7,1.1,1.6,1.1,2.6v92.2
				c0,1-0.8,1.6-2.4,1.6h-6.8c-0.6,0-1.2-0.2-1.6-0.7c-0.5-0.5-0.7-1.1-0.7-1.8V82.1c0-0.3,0-0.4-0.1-0.4c-0.1,0-0.2,0.1-0.4,0.4
				l-40.5,77c-0.7,1.4-2.1,2.1-4.2,2.1h-8.1c-1,0-1.9-0.4-2.7-1.1C512.6,159.3,512.3,158.4,512.3,157.4z"/>
			<path d="M559.8,51.7h-26.1c-1.7,0-2.5-0.7-2.5-2.2v-5.1c0-0.7,0.2-1.3,0.7-1.7c0.5-0.4,1.1-0.7,1.8-0.7h26.1
				c1.7,0,2.5,0.8,2.5,2.4v5.1C562.3,51,561.5,51.7,559.8,51.7z"/>
			<path d="M825.1,157.4V66.2c0-1.7,0.8-2.5,2.4-2.5h7c0.6,0,1.2,0.2,1.6,0.7c0.5,0.5,0.7,1.1,0.7,1.8v76.8c0,0.3,0,0.4,0.1,0.4
				l0.3-0.4l40.3-76.6c0.5-1,1.1-1.7,1.8-2.1c0.7-0.4,1.9-0.5,3.6-0.5h7.2c1,0,1.9,0.3,2.7,1c0.7,0.7,1.1,1.6,1.1,2.6v92.2
				c0,1-0.8,1.6-2.4,1.6h-6.8c-0.6,0-1.2-0.2-1.6-0.7s-0.7-1.1-0.7-1.8V82.1c0-0.3,0-0.4-0.1-0.4s-0.2,0.1-0.4,0.4l-40.5,77
				c-0.7,1.4-2.1,2.1-4.2,2.1h-8.1c-1,0-1.9-0.4-2.7-1.1C825.5,159.3,825.1,158.4,825.1,157.4z"/>
			<path d="M872.7,51.7h-26.1c-1.7,0-2.5-0.7-2.5-2.2v-5.1c0-0.7,0.2-1.3,0.7-1.7c0.5-0.4,1.1-0.7,1.8-0.7h26.1
				c1.7,0,2.5,0.8,2.5,2.4v5.1C875.2,51,874.4,51.7,872.7,51.7z"/>
		</g>
		<g>
			<g>
				<g>
					<linearGradient id="SVGID_1_" gradientUnits="userSpaceOnUse" x1="478.5939" y1="43.4999" x2="841.4061" y2="406.3121">
						<stop  offset="0" style="stop-color:#D57A5C"/>
						<stop  offset="0.5" style="stop-color:#C20E1A"/>
						<stop  offset="1" style="stop-color:#AE1E20"/>
					</linearGradient>
					<rect x="340" y="182.1" class="st0" width="640" height="85.6"/>
				</g>
			</g>
			<g>
				<g>
					<path class="st1" d="M391.2,246.9c-0.2,0.2-0.5,0.4-0.8,0.4h-3.1c-0.3,0-0.6-0.1-0.8-0.4c-0.2-0.2-0.4-0.5-0.4-0.8v-20h-20.6
						v20c0,0.3-0.1,0.6-0.4,0.8c-0.2,0.2-0.5,0.4-0.8,0.4h-3.1c-0.3,0-0.6-0.1-0.8-0.4c-0.2-0.2-0.4-0.5-0.4-0.8v-42.4
						c0-0.3,0.1-0.6,0.4-0.8c0.2-0.2,0.5-0.4,0.8-0.4h3.1c0.3,0,0.6,0.1,0.8,0.4c0.2,0.2,0.4,0.5,0.4,0.8v17.5h20.6v-17.5
						c0-0.3,0.1-0.6,0.4-0.8c0.2-0.2,0.5-0.4,0.8-0.4h3.1c0.3,0,0.6,0.1,0.8,0.4c0.2,0.2,0.4,0.5,0.4,0.8v42.4
						C391.6,246.4,391.5,246.7,391.2,246.9z"/>
				</g>
				<g>
					<path class="st1" d="M431.5,247.3H428c-0.5,0-0.9-0.3-1-0.9l-3.9-13.9h-15.6l-3.9,13.9c-0.2,0.6-0.5,0.9-1.1,0.9h-3.6
						c-0.7,0-1-0.3-1-1c0-0.2,0-0.3,0.1-0.4l11.2-39.2c0.8-3.1,2.9-4.6,6.1-4.6c3.2,0,5.2,1.5,6.1,4.5l11.2,39.3
						c0,0.1,0.1,0.2,0.1,0.4C432.6,247,432.2,247.3,431.5,247.3z M416.4,207.9c-0.2-0.7-0.6-1.1-1.1-1.1c-0.6,0-1,0.4-1.2,1.1
						l-5.5,19.8h13.3L416.4,207.9z"/>
				</g>
				<g>
					<path class="st1" d="M450.3,229.5c-1.4,0-3.4-0.1-6-0.3v16.9c0,0.3-0.1,0.6-0.3,0.8c-0.2,0.2-0.5,0.4-0.8,0.4H440
						c-0.3,0-0.5-0.1-0.8-0.4c-0.2-0.2-0.3-0.5-0.3-0.8v-42c0-0.9,0.5-1.4,1.4-1.5c2.8-0.3,6.1-0.5,10-0.5
						c11.2,0,16.9,4.4,16.9,13.1v0.8C467.2,225,461.6,229.5,450.3,229.5z M461.7,215.2c0-3-0.9-5.2-2.7-6.5c-1.8-1.3-4.7-2-8.6-2
						c-2.1,0-4.1,0.1-6,0.2v17.7c3.7,0.2,5.7,0.2,6,0.2c4.1,0,7-0.7,8.8-2.1c1.7-1.4,2.6-3.7,2.6-6.8V215.2z"/>
				</g>
				<g>
					<path class="st1" d="M488.8,238.6c-1.3,3.3-2.7,5.7-4.3,7.1c-1.6,1.4-4.1,2.1-7.4,2.1c-1.4,0-2.7-0.1-3.8-0.4
						c-0.8-0.2-1.3-0.5-1.3-1v-2.8c0-0.7,0.4-1,1.3-1c1.2,0.1,2.5,0.2,3.7,0.2c1.7,0,3-0.3,3.8-1c0.8-0.6,1.6-2,2.4-4.2l2.2-5.7
						h-0.3c-1.1,0-2-0.3-2.6-0.8c-0.6-0.5-1.2-1.5-1.7-2.9l-9.1-24.3c-0.2-0.4-0.2-0.8,0-1.1s0.4-0.4,0.9-0.4h3.7
						c0.5,0,0.8,0.3,1.1,0.8l8.5,22.6c0.2,0.5,0.3,0.8,0.5,0.9s0.4,0.2,0.7,0.2h0.4l9.2-23.7c0.2-0.6,0.6-0.8,1-0.8h3.7
						c0.4,0,0.7,0.1,0.9,0.4s0.1,0.6,0,1.1L488.8,238.6z"/>
				</g>
				<g>
					<path class="st1" d="M560.7,246.8c-0.1,0.3-0.3,0.5-0.8,0.5h-4.7c-0.5,0-1-0.2-1.3-0.6l-17-20.7v20.1c0,0.3-0.1,0.6-0.3,0.8
						c-0.2,0.2-0.5,0.4-0.8,0.4h-3.3c-0.3,0-0.5-0.1-0.8-0.4c-0.2-0.2-0.3-0.5-0.3-0.8V226l-17,20.7c-0.4,0.4-0.8,0.6-1.3,0.6h-4.7
						c-0.4,0-0.7-0.2-0.8-0.5c-0.1-0.3,0-0.6,0.3-0.9l18.1-21.7l-18.1-20.5c-0.2-0.2-0.3-0.5-0.2-0.8c0.1-0.3,0.4-0.5,0.8-0.5h4.3
						c0.4,0,0.8,0.2,1.2,0.5l17.4,20.1v-19.5c0-0.3,0.1-0.6,0.3-0.8c0.2-0.2,0.5-0.3,0.8-0.3h3.2c0.3,0,0.6,0.1,0.8,0.3
						c0.2,0.2,0.3,0.5,0.3,0.8v19.5l17.4-20.1c0.4-0.4,0.8-0.5,1.2-0.5h4.3c0.4,0,0.7,0.2,0.8,0.5c0.1,0.3,0,0.6-0.2,0.8l-18.1,20.5
						l18.1,21.7C560.6,246.3,560.7,246.5,560.7,246.8z"/>
				</g>
				<g>
					<path class="st1" d="M598.7,246.9c-0.2,0.2-0.5,0.4-0.8,0.4h-3.1c-0.3,0-0.6-0.1-0.8-0.4c-0.2-0.2-0.4-0.5-0.4-0.8v-20h-20.6
						v20c0,0.3-0.1,0.6-0.4,0.8c-0.2,0.2-0.5,0.4-0.8,0.4h-3.1c-0.3,0-0.6-0.1-0.8-0.4c-0.2-0.2-0.4-0.5-0.4-0.8v-42.4
						c0-0.3,0.1-0.6,0.4-0.8c0.2-0.2,0.5-0.4,0.8-0.4h3.1c0.3,0,0.6,0.1,0.8,0.4c0.2,0.2,0.4,0.5,0.4,0.8v17.5h20.6v-17.5
						c0-0.3,0.1-0.6,0.4-0.8c0.2-0.2,0.5-0.4,0.8-0.4h3.1c0.3,0,0.6,0.1,0.8,0.4c0.2,0.2,0.4,0.5,0.4,0.8v42.4
						C599,246.4,598.9,246.7,598.7,246.9z"/>
				</g>
				<g>
					<path class="st1" d="M639,247.3h-3.6c-0.5,0-0.9-0.3-1-0.9l-3.9-13.9h-15.6l-3.9,13.9c-0.2,0.6-0.5,0.9-1.1,0.9h-3.6
						c-0.7,0-1-0.3-1-1c0-0.2,0-0.3,0.1-0.4l11.2-39.2c0.8-3.1,2.9-4.6,6.1-4.6c3.2,0,5.2,1.5,6.1,4.5l11.2,39.3
						c0,0.1,0.1,0.2,0.1,0.4C640,247,639.7,247.3,639,247.3z M623.9,207.9c-0.2-0.7-0.6-1.1-1.1-1.1c-0.6,0-1,0.4-1.2,1.1l-5.5,19.8
						h13.3L623.9,207.9z"/>
				</g>
				<g>
					<path class="st1" d="M675.9,246.9c-0.2,0.2-0.5,0.4-0.8,0.4h-3.3c-0.3,0-0.5-0.1-0.8-0.4c-0.2-0.2-0.3-0.5-0.3-0.8v-17.7
						c-2.4,0.1-4.6,0.2-6.6,0.2h-1.6l-10.8,18c-0.3,0.5-0.8,0.8-1.6,0.8h-3.9c-0.4,0-0.6-0.2-0.7-0.5c-0.1-0.3-0.1-0.6,0.1-0.9
						l11-18.3c-2.9-0.8-5.2-2.2-6.9-4.2c-1.7-2.1-2.6-4.7-2.6-8v-0.4c0-8.6,5.6-13,16.9-13c4.3,0,7.8,0.2,10.6,0.5
						c0.6,0.1,0.9,0.2,1.1,0.4c0.2,0.2,0.3,0.5,0.3,0.9v42.2C676.2,246.4,676.1,246.7,675.9,246.9z M670.7,207.2
						c-1-0.1-3.2-0.2-6.6-0.2c-3.9,0-6.8,0.6-8.6,1.8c-1.9,1.2-2.8,3.3-2.8,6.2v0.4c0,3.1,0.9,5.3,2.8,6.5c1.9,1.2,4.8,1.8,8.6,1.8
						c1.6,0,3.8,0,6.6-0.1V207.2z"/>
				</g>
				<g>
					<path class="st1" d="M711.7,229.5c-1.4,0-3.4-0.1-6-0.3v16.9c0,0.3-0.1,0.6-0.3,0.8c-0.2,0.2-0.5,0.4-0.8,0.4h-3.3
						c-0.3,0-0.5-0.1-0.8-0.4c-0.2-0.2-0.3-0.5-0.3-0.8v-42c0-0.9,0.5-1.4,1.4-1.5c2.8-0.3,6.1-0.5,10-0.5
						c11.2,0,16.9,4.4,16.9,13.1v0.8C728.6,225,723,229.5,711.7,229.5z M723.1,215.2c0-3-0.9-5.2-2.7-6.5c-1.8-1.3-4.7-2-8.6-2
						c-2.1,0-4.1,0.1-6,0.2v17.7c3.7,0.2,5.7,0.2,6,0.2c4.1,0,7-0.7,8.8-2.1c1.7-1.4,2.6-3.7,2.6-6.8V215.2z"/>
				</g>
				<g>
					<path class="st1" d="M759.8,247.4c-1.9,0.2-5.8,0.3-11.8,0.3c-4.3,0-7.5-0.9-9.6-2.7c-2.1-1.8-3.2-4.6-3.2-8.6v-23.2
						c0-3.9,1.1-6.8,3.2-8.6c2.1-1.8,5.3-2.7,9.6-2.7c5.3,0,9.2,0.1,11.8,0.4c0.4,0.1,0.6,0.4,0.6,0.8v3c0,0.5-0.2,0.7-0.7,0.7
						h-11.6c-3.1,0-5.1,0.4-6,1.3c-0.9,0.9-1.4,2.5-1.4,4.9v8.4h18.5c0.3,0,0.6,0.1,0.8,0.4c0.2,0.2,0.4,0.5,0.4,0.8v2.3
						c0,0.3-0.1,0.6-0.4,0.8c-0.2,0.2-0.5,0.4-0.8,0.4h-18.5v10.1c0,2.4,0.5,4.1,1.4,4.9c0.9,0.9,2.9,1.3,6,1.3h11.6
						c0.4,0,0.7,0.2,0.7,0.7v3.1C760.4,247.1,760.2,247.3,759.8,247.4z"/>
				</g>
				<g>
					<path class="st1" d="M796.7,246.8c-0.1,0.3-0.3,0.5-0.8,0.5h-4.7c-0.5,0-1-0.2-1.3-0.6l-17-20.7v20.1c0,0.3-0.1,0.6-0.3,0.8
						c-0.2,0.2-0.5,0.4-0.8,0.4h-3.3c-0.3,0-0.5-0.1-0.8-0.4c-0.2-0.2-0.3-0.5-0.3-0.8v-42.4c0-0.3,0.1-0.6,0.3-0.8
						c0.2-0.2,0.5-0.3,0.8-0.3h3.2c0.3,0,0.6,0.1,0.8,0.3c0.2,0.2,0.3,0.5,0.3,0.8v19.5l17.4-20.1c0.4-0.4,0.8-0.5,1.2-0.5h4.3
						c0.4,0,0.7,0.2,0.8,0.5c0.1,0.3,0,0.6-0.2,0.8l-18.1,20.5l18.1,21.7C796.7,246.3,796.8,246.5,796.7,246.8z"/>
				</g>
				<g>
					<path class="st1" d="M820.5,207.9c-0.2-0.7-0.6-1.1-1.1-1.1c-0.6,0-1,0.4-1.2,1.1l-10.5,38.5c-0.2,0.6-0.5,0.9-1.1,0.9H803
						c-0.7,0-1-0.3-1-1c0-0.2,0-0.3,0.1-0.4l11.2-39.2c0.8-3.1,2.9-4.6,6.1-4.6c3.2,0,5.2,1.5,6.1,4.5l11.2,39.3
						c0,0.1,0.1,0.2,0.1,0.4c0,0.6-0.3,1-1,1h-3.6c-0.5,0-0.9-0.3-1-0.9L820.5,207.9z"/>
				</g>
				<g>
					<path class="st1" d="M875.2,247.3h-3.6c-0.5,0-0.9-0.3-1-0.9l-3.9-13.9h-15.6l-3.9,13.9c-0.2,0.6-0.5,0.9-1.1,0.9h-3.6
						c-0.7,0-1-0.3-1-1c0-0.2,0-0.3,0.1-0.4l11.2-39.2c0.8-3.1,2.9-4.6,6.1-4.6c3.2,0,5.2,1.5,6.1,4.5l11.2,39.3
						c0,0.1,0.1,0.2,0.1,0.4C876.2,247,875.9,247.3,875.2,247.3z M860.1,207.9c-0.2-0.7-0.6-1.1-1.1-1.1c-0.6,0-1,0.4-1.2,1.1
						l-5.5,19.8h13.3L860.1,207.9z"/>
				</g>
				<g>
					<path class="st1" d="M918.7,246.9c-0.2,0.2-0.5,0.4-0.8,0.4h-3c-0.3,0-0.6-0.1-0.8-0.4c-0.2-0.2-0.4-0.5-0.4-0.8v-35.7
						c0-0.3-0.1-0.3-0.2-0.1l-8.6,17.8c-0.3,0.6-0.7,1.1-1.1,1.4s-0.9,0.4-1.7,0.4h-2.8c-0.7,0-1.3-0.1-1.7-0.4
						c-0.4-0.3-0.7-0.7-1.1-1.4l-8.6-17.8c-0.1-0.2-0.2-0.2-0.2,0.1v35.7c0,0.3-0.1,0.6-0.4,0.8c-0.2,0.2-0.5,0.4-0.8,0.4h-3
						c-0.3,0-0.6-0.1-0.8-0.4c-0.2-0.2-0.4-0.5-0.4-0.8v-41.8c0-0.5,0.2-0.9,0.5-1.2c0.3-0.3,0.8-0.5,1.2-0.5h3.9c1,0,1.6,0.3,1.9,1
						l9.9,20.7c0.2,0.4,0.4,0.7,0.7,0.7s0.5-0.2,0.7-0.7l9.9-20.7c0.3-0.7,1-1,1.9-1h3.9c0.5,0,0.9,0.2,1.2,0.5s0.5,0.8,0.5,1.2
						v41.8C919.1,246.4,918.9,246.7,918.7,246.9z"/>
				</g>
				<g>
					<path class="st1" d="M959,247.3h-3.6c-0.5,0-0.9-0.3-1-0.9l-3.9-13.9h-15.6l-3.9,13.9c-0.2,0.6-0.5,0.9-1.1,0.9h-3.6
						c-0.7,0-1-0.3-1-1c0-0.2,0-0.3,0.1-0.4l11.2-39.2c0.8-3.1,2.9-4.6,6.1-4.6c3.2,0,5.2,1.5,6.1,4.5l11.2,39.3
						c0,0.1,0.1,0.2,0.1,0.4C960,247,959.7,247.3,959,247.3z M943.8,207.9c-0.2-0.7-0.6-1.1-1.1-1.1c-0.6,0-1,0.4-1.2,1.1l-5.5,19.8
						h13.3L943.8,207.9z"/>
				</g>
			</g>
		</g>
	</g>
	<g>
		<g>
			<linearGradient id="SVGID_2_" gradientUnits="userSpaceOnUse" x1="46.8629" y1="46.8629" x2="273.1371" y2="273.1371">
				<stop  offset="0" style="stop-color:#D57A5C"/>
				<stop  offset="0.5" style="stop-color:#C20E1A"/>
				<stop  offset="1" style="stop-color:#AE1E20"/>
			</linearGradient>
			<circle class="st2" cx="160" cy="160" r="160"/>
		</g>
		<g>
			<linearGradient id="SVGID_3_" gradientUnits="userSpaceOnUse" x1="79.8941" y1="73.4887" x2="276.3318" y2="269.9265">
				<stop  offset="0" style="stop-color:#000000;stop-opacity:0.5"/>
				<stop  offset="1" style="stop-color:#000000;stop-opacity:0"/>
			</linearGradient>
			<path class="st3" d="M320,162.4L257.6,100l-60.8,0c-6.6,0-12.3,0.9-17.1,2.6c-4.7,1.7-8.6,4.1-11.6,7.2c-3,3.1-5.2,6.7-6.6,10.9
				c-1.4,4.2-2,8.8-2,13.8c0,4.1,0.6,8.3,1.7,12.4c1.1,4.2,3.1,7.9,6,11.2c0.3,0.4,0.7,0.8,1.1,1.1l39.7,39.7h-34.8L74.3,100l-21,0
				l0,21l0,57.5c0,6,0.8,11.6,2.4,16.6c1.6,5,4.2,9.4,7.7,13.1l111.1,111.1C255.3,312,318.8,244.8,320,162.4z"/>
		</g>
		<g>
			<g>
				<path class="st1" d="M74.3,178.4c0,2.8,0.4,5.5,1.2,8.1c0.8,2.5,2.1,4.7,4,6.6c1.9,1.8,4.4,3.3,7.5,4.4s7.1,1.6,11.8,1.6h46.5
					v21H97.6c-7.9,0-14.7-1-20.3-3.1c-5.6-2.1-10.2-4.9-13.8-8.6c-3.6-3.7-6.1-8-7.7-13.1c-1.6-5-2.4-10.6-2.4-16.6V100h21V178.4z"
					/>
			</g>
			<g>
				<path class="st1" d="M257.6,121h-61.5c-5.4,0-9.4,1.3-11.9,4c-2.5,2.7-3.7,6.1-3.7,10.2c0,1.8,0.3,3.5,0.8,5.2
					c0.5,1.7,1.5,3.3,2.8,4.6c1.4,1.4,3.2,2.4,5.4,3.2c2.3,0.8,5.2,1.2,8.7,1.2h28.1c8.2,0,14.9,1,20.1,3.1
					c5.2,2.1,9.3,4.8,12.3,8.1c3,3.3,5.1,7.1,6.2,11.4c1.1,4.3,1.7,8.5,1.7,12.8c0,5.1-0.7,9.8-2.1,14c-1.4,4.3-3.7,8-6.7,11.1
					c-3.1,3.1-7,5.6-11.8,7.4s-10.6,2.7-17.5,2.7h-66.8v-21h67.5c5.7,0,9.9-1.4,12.5-4.2c2.7-2.8,4-6.4,4-10.7
					c0-1.9-0.3-3.8-0.9-5.6c-0.6-1.8-1.6-3.4-3-4.8c-1.4-1.4-3.3-2.5-5.8-3.3c-2.4-0.8-5.5-1.2-9.1-1.2H199c-8.1,0-14.6-1-19.7-3
					c-5.1-2-9.1-4.7-12-8c-2.9-3.3-4.9-7-6-11.2s-1.7-8.3-1.7-12.4c0-5,0.7-9.6,2-13.8c1.4-4.2,3.6-7.8,6.6-10.9
					c3-3.1,6.9-5.5,11.6-7.2c4.7-1.7,10.4-2.6,17.1-2.6h60.7V121z"/>
			</g>
		</g>
	</g>
</g>
</svg>
